<?xml version="1.0" encoding="UTF-8"?>
<svg width="24px" height="24px" viewBox="0 0 24 24" version="1.1" xmlns="http://www.w3.org/2000/svg" xmlns:xlink="http://www.w3.org/1999/xlink">
    <!-- Generator: Sketch 45 (43475) - http://www.bohemiancoding.com/sketch -->
    <title>Facebook Copy</title>
    <desc>Created with Sketch.</desc>
    <defs></defs>
    <g id="Page-1" stroke="none" stroke-width="1" fill="none" fill-rule="evenodd">
        <g id="woody_index" transform="translate(-1200.000000, -4278.000000)" fill="#DCB677">
            <g id="Group-7" transform="translate(1200.000000, 4278.000000)">
                <path d="M24,22.6754924 C24,23.4070442 23.4070442,24.0006538 22.6754924,24.0006538 L16.5596143,24.0006538 L16.5596143,14.7062188 L19.6793332,14.7062188 L20.146768,11.0837624 L16.5596143,11.0837624 L16.5596143,8.77143091 C16.5596143,7.72280788 16.851189,7.00825366 18.3548255,7.00825366 L20.2729427,7.0075999 L20.2729427,3.7675901 C19.9408352,3.72378851 18.8026477,3.6250715 17.4781401,3.6250715 C14.7127564,3.6250715 12.8194819,5.31306693 12.8194819,8.41317316 L12.8194819,11.0837624 L9.69191795,11.0837624 L9.69191795,14.7062188 L12.8194819,14.7062188 L12.8194819,24.0006538 L1.32450764,24.0006538 C0.59295579,24.0006538 0,23.4070442 0,22.6754924 L0,1.3251614 C0,0.59295579 0.59295579,0 1.32450764,0 L22.6754924,0 C23.4070442,0 24,0.59295579 24,1.3251614 L24,22.6754924" id="Facebook-Copy"></path>
            </g>
        </g>
    </g>
</svg>