<?xml version="1.0" encoding="UTF-8"?>
<svg width="97px" height="38px" viewBox="0 0 97 38" version="1.1" xmlns="http://www.w3.org/2000/svg" xmlns:xlink="http://www.w3.org/1999/xlink">
    <!-- Generator: Sketch 45 (43475) - http://www.bohemiancoding.com/sketch -->
    <title>Mask</title>
    <desc>Created with Sketch.</desc>
    <defs>
        <rect id="path-1" x="0" y="0" width="97" height="38"></rect>
        <polygon id="path-3" points="1.19524602 0.815972097 0.0692242631 0.815972097 0.0692242631 0.0777606924 1.19524602 0.0777606924 1.19524602 0.815972097"></polygon>
        <polygon id="path-5" points="0.0218395375 5.00688204 5.12497014 5.00688204 5.12497014 0.126834413 0.0218395375 0.126834413"></polygon>
    </defs>
    <g id="Page-1" stroke="none" stroke-width="1" fill="none" fill-rule="evenodd">
        <g id="woody_index" transform="translate(-218.000000, -4078.000000)">
            <g id="Page-1-Copy" transform="translate(218.000000, 4077.000000)">
                <g id="Group-40" transform="translate(0.000000, 1.000000)">
                    <mask id="mask-2" fill="white">
                        <use xlink:href="#path-1"></use>
                    </mask>
                    <g id="Mask"></g>
                    <g id="Group-58" mask="url(#mask-2)">
                        <g transform="translate(9.000000, -31.914021)">
                            <path d="M0.199643658,54.0455256 L1.02051352,46.093047 C1.05767224,45.7904276 1.07456256,45.5575569 1.07456256,45.3955599 C1.07456256,45.11994 0.997993084,44.9140688 0.843728103,44.7745713 C0.688337101,44.6339489 0.406831661,44.5585753 0.000337806527,44.5484505 L0.0780333078,44.2852053 L3.65540443,44.2852053 L3.57770893,44.5484505 C3.09914968,44.5405756 2.77260337,44.627199 2.59581796,44.8049458 C2.42128459,44.9815675 2.30080026,45.4113096 2.23774304,46.093047 L1.70400873,51.2510771 L5.3354289,45.6576801 C5.33880696,45.5575569 5.34331105,45.4765584 5.34331105,45.4113096 C5.34331105,45.1503144 5.26674157,44.9478181 5.11247659,44.8105707 C4.95821161,44.6699483 4.62378314,44.5821999 4.11031722,44.5484505 L4.16324025,44.2852053 L8.02887294,44.2852053 L7.95005142,44.5484505 C7.50752487,44.5518254 7.20687706,44.5911997 7.04923401,44.6586985 C6.93888388,44.7126975 6.84429805,44.794821 6.76435051,44.9106938 C6.68552898,45.0220668 6.62359779,45.2189381 6.57630487,45.499058 C6.56504466,45.5811815 6.50761755,46.1245465 6.40740161,47.1336529 C6.30268159,48.1416343 6.15404671,49.514109 5.95586688,51.2510771 L8.97473122,46.6622866 C9.30127753,46.1605458 9.50621349,45.8095523 9.5895391,45.6036811 C9.67511675,45.3989348 9.71677956,45.227938 9.71677956,45.0884405 C9.71677956,44.9613179 9.66160449,44.845445 9.55012834,44.740822 C9.4397782,44.6418238 9.2483545,44.576575 8.97473122,44.5484505 L9.02652822,44.2852053 L11.861851,44.2852053 L11.7897856,44.5484505 C11.5398088,44.5642002 11.3179825,44.6249491 11.1243068,44.7318221 C10.9340091,44.8341952 10.7054267,45.0321916 10.4430636,45.3235612 C10.2978068,45.4923081 9.9881508,45.9377999 9.51747371,46.6622866 L4.72287306,54.0455256 L4.46050999,54.0455256 L5.23859102,46.6622866 L0.434982205,54.0455256 L0.199643658,54.0455256 Z" id="Fill-3" fill="#DCB677"></path>
                            <path d="M18.0857111,46.4156911 L15.3224537,50.1753719 L17.718628,50.1753719 L18.0857111,46.4156911 Z M19.4763479,44.0667344 L18.7500639,52.0113381 C18.7162833,52.3769563 18.7005189,52.6199518 18.7005189,52.7346997 C18.7005189,52.9214463 18.7331736,53.0643187 18.8041129,53.1633168 C18.8908166,53.3039392 19.013553,53.4063124 19.167818,53.4704362 C19.322083,53.533435 19.5799419,53.5660594 19.9402689,53.5660594 L19.8614474,53.8281796 L16.1005347,53.8281796 L16.1804823,53.5660594 L16.3381253,53.5660594 C16.6477813,53.5660594 16.8966321,53.5019356 17.0891818,53.3748129 C17.2220524,53.2814397 17.3290244,53.1318174 17.4044679,52.9281962 C17.4562649,52.7808239 17.5069359,52.4399552 17.5531028,51.8977151 L17.666831,50.6906124 L14.9283461,50.6906124 L13.9577153,52.0113381 C13.737015,52.3015827 13.5985144,52.5119538 13.5422133,52.6390765 C13.4870382,52.7673241 13.4577616,52.8888219 13.4577616,53.0069447 C13.4577616,53.1576919 13.5208189,53.2870646 13.6435552,53.3950626 C13.7651656,53.5030606 13.9667235,53.5615595 14.2448509,53.5660594 L14.1682814,53.8281796 L11.3419668,53.8281796 L11.4207883,53.5660594 C11.7721071,53.5536846 12.077259,53.4378118 12.3430001,53.2195658 C12.6098673,53.0046948 13.0051009,52.5367034 13.529827,51.8257165 L19.2320012,44.0667344 L19.4763479,44.0667344 Z" id="Fill-5" fill="#DCB677"></path>
                            <path d="M29.2639543,53.8280671 L22.1880335,53.8280671 L22.2848714,53.5659469 C22.6620887,53.561447 22.9143176,53.5310726 23.0359279,53.4770736 C23.2341078,53.3915751 23.3816166,53.2813272 23.4728244,53.1474546 C23.6192072,52.9314586 23.7734722,52.5399658 23.9367453,51.9763512 L25.625778,46.1714581 C25.7654047,45.6944669 25.835218,45.3412234 25.835218,45.1151026 C25.835218,44.9396058 25.7721608,44.8023583 25.6426683,44.7044851 C25.5131758,44.6054869 25.2688291,44.5548629 24.9073761,44.5548629 C24.8319326,44.5548629 24.7711274,44.5514879 24.7249606,44.548113 L24.8037821,44.2859928 L28.6953133,44.2859928 L28.6435163,44.548113 C28.2066198,44.548113 27.8958378,44.5886123 27.7122963,44.6729857 C27.5276287,44.7573591 27.3756158,44.8968566 27.2540054,45.0881031 C27.1718058,45.2163507 27.0344312,45.6112184 26.8407554,46.2682063 L25.1877555,51.9763512 C25.060515,52.4072183 24.9963318,52.7053378 24.9963318,52.8740847 C24.9963318,52.9933325 25.060515,53.1013305 25.1877555,53.1969537 C25.264325,53.2700774 25.4456145,53.3038267 25.729372,53.3038267 L26.6493317,53.3038267 C27.3181887,53.3038267 27.854175,53.2194533 28.2494087,53.0507064 C28.5410483,52.9280837 28.8112935,52.7379622 29.0545142,52.4837169 C29.1828807,52.3430944 29.4125891,51.9921009 29.7458916,51.4341112 L29.9283071,51.117992 L30.1917962,51.117992 L29.2639543,53.8280671 Z" id="Fill-7" fill="#DCB677"></path>
                            <path d="M36.6023507,44.2855428 L39.5502756,51.7644051 L41.1503525,46.1833829 C41.279845,45.7198914 41.3429023,45.3655229 41.3429023,45.1146526 C41.3429023,44.9391558 41.2820971,44.8030333 41.1593607,44.7040351 C41.0354983,44.605037 40.809168,44.5544129 40.4781176,44.5544129 C40.4184384,44.5544129 40.3587592,44.5510379 40.3024582,44.547663 L40.3812797,44.2855428 L43.450815,44.2855428 L43.3618593,44.547663 C43.0420691,44.5409131 42.8056045,44.5735375 42.6547176,44.6421613 C42.4340173,44.7411594 42.2684921,44.8705321 42.157016,45.0269042 C42.0095071,45.2474001 41.8586202,45.632143 41.7009772,46.1833829 L39.4534378,54.0458631 L39.2000829,54.0458631 L36.0235755,45.9966363 L34.3266607,51.9410268 C34.2039243,52.3955185 34.1431191,52.7420121 34.1431191,52.9816327 C34.1431191,53.1548795 34.2005463,53.289877 34.3154005,53.3810003 C34.4268766,53.4743736 34.6993739,53.5362475 35.1317662,53.5654969 L35.0630789,53.8276171 L32.0611049,53.8276171 L32.1579428,53.5654969 C32.5374121,53.560997 32.790767,53.5283726 32.9202595,53.4709987 C33.1105572,53.3810003 33.254688,53.2707524 33.3481478,53.1368798 C33.4810183,52.9332586 33.6319053,52.5327659 33.8008085,51.9410268 L35.6925251,45.305899 C35.5112356,45.0269042 35.3141818,44.8345327 35.1058677,44.7310346 C34.8964277,44.6252866 34.5721334,44.5645377 34.136363,44.547663 L34.2140585,44.2855428 L36.6023507,44.2855428 Z" id="Fill-9" fill="#DCB677"></path>
                            <path d="M45.7671544,44.2855428 L49.8016903,44.2855428 L49.7217428,44.547663 C49.3084928,44.5589128 49.0134751,44.5982871 48.8378157,44.6669108 C48.6632823,44.7310346 48.5123954,44.8536574 48.388533,45.0269042 C48.2612925,45.201276 48.1329261,45.5218951 47.9978035,45.9887615 L47.0181645,49.3715742 C46.8436312,49.9723131 46.7422892,50.3638059 46.7118866,50.5505525 C46.6555855,50.848672 46.6240569,51.1287918 46.6240569,51.390912 C46.6240569,51.9545266 46.834623,52.4326428 47.2591332,52.8286355 C47.6813913,53.2190033 48.2466543,53.4169997 48.9526699,53.4169997 C49.4188429,53.4169997 49.835471,53.3292513 50.2036801,53.1515046 C50.5707632,52.9737578 50.8826712,52.7251374 51.1427822,52.4078932 C51.4006412,52.0906491 51.6393578,51.660907 51.85668,51.117542 C52.0717502,50.577552 52.2597958,50.033062 52.426447,49.4829471 L53.2732154,46.5658758 C53.4826554,45.8380142 53.5873755,45.3655229 53.5873755,45.1495269 C53.5873755,44.9931548 53.5153101,44.8592823 53.3745574,44.7490343 C53.2304266,44.6376614 52.939913,44.5690376 52.5030165,44.547663 L52.581838,44.2855428 L55.6187187,44.2855428 L55.5387712,44.547663 C55.1840743,44.547663 54.9262153,44.5825374 54.7685723,44.6522861 C54.6120553,44.7209098 54.4758066,44.8446575 54.3564483,45.0179043 C54.2415941,45.1945261 54.1109756,45.5331449 53.9645928,46.0427605 L52.9218966,49.5808203 C52.5908462,50.7282992 52.2766861,51.5754086 51.9816684,52.1243985 C51.6889028,52.6711384 51.2587625,53.129005 50.6957516,53.4968732 C50.1327407,53.8624915 49.4379853,54.0458631 48.6114853,54.0458631 C47.6543668,54.0458631 46.8819159,53.776993 46.2907545,53.233628 C45.7018451,52.691388 45.4090794,52.0715244 45.4090794,51.3729123 C45.4090794,51.0984174 45.436104,50.8059228 45.4867749,50.4898036 C45.5295638,50.2805574 45.6230236,49.921689 45.7671544,49.4143234 L46.7118866,46.1721331 C46.8413791,45.7063917 46.9044363,45.363273 46.9044363,45.1405271 C46.9044363,44.9661553 46.8391271,44.8311578 46.7040045,44.7344096 C46.5677558,44.6376614 46.2344534,44.5769125 45.698467,44.547663 L45.7671544,44.2855428 Z" id="Fill-11" fill="#DCB677"></path>
                            <path d="M58.2035017,44.2855428 L65.4550818,44.2855428 L64.6679926,46.8178712 L64.4067555,46.8178712 C64.4945852,46.4522529 64.5385001,46.123759 64.5385001,45.8301394 C64.5385001,45.4881457 64.432654,45.2282755 64.223214,45.0550287 C64.0610668,44.9245311 63.6478169,44.8604072 62.9890941,44.8604072 L62.2380376,44.8604072 L60.3463211,51.4235364 C60.1087305,52.2526461 59.9893722,52.7633867 59.9893722,52.9535082 C59.9893722,53.1346299 60.0625636,53.2820022 60.2134505,53.3956251 C60.3609593,53.5103729 60.6267005,53.5654969 61.0117999,53.5654969 L61.3349682,53.5654969 L61.2493905,53.8276171 L57.0932442,53.8276171 L57.1720657,53.5654969 L57.3556073,53.5654969 C57.7238164,53.5654969 58.0053218,53.506998 58.2035017,53.3922501 C58.3386243,53.3090017 58.4613606,53.1650043 58.5717108,52.9568831 C58.6820609,52.7521369 58.8351999,52.311145 59.0266236,51.6350325 L61.0117999,44.8604072 L60.4341508,44.8604072 C59.8857782,44.8604072 59.4443776,44.9324059 59.1099492,45.0719034 C58.7755207,45.2102758 58.5030234,45.4138971 58.2969615,45.6827671 C58.0886474,45.9505122 57.9219962,46.3296302 57.7947558,46.8178712 L57.5312667,46.8178712 L58.2035017,44.2855428 Z" id="Fill-13" fill="#DCB677"></path>
                            <path d="M67.099524,52.5689903 C67.2965778,52.5689903 67.465481,52.637614 67.6062337,52.7759865 C67.7458604,52.912109 67.8167998,53.0786059 67.8167998,53.2766023 C67.8167998,53.4745986 67.7458604,53.6433455 67.6062337,53.7828429 C67.465481,53.9234653 67.2965778,53.995464 67.099524,53.995464 C66.9013441,53.995464 66.7324409,53.9234653 66.5961922,53.7828429 C66.4599436,53.6433455 66.3901302,53.4745986 66.3901302,53.2766023 C66.3901302,53.0786059 66.4599436,52.912109 66.5961922,52.7759865 C66.7324409,52.637614 66.9013441,52.5689903 67.099524,52.5689903" id="Fill-15" fill="#DCB677"></path>
                            <g id="Group-19" stroke-width="1" fill="none" transform="translate(70.740183, 44.225958)">
                                <path d="M5.12114167,0.059585276 L6.00506875,7.73981883 L11.5518519,0.059585276 L13.8770869,0.059585276 L13.8770869,0.321705449 C13.3703771,0.356579806 13.0731073,0.386954247 12.9852776,0.416203708 C12.8276346,0.480327527 12.6857558,0.605200228 12.5573894,0.78857185 C12.4290229,0.971943473 12.2882702,1.32406199 12.1385093,1.84155246 L10.3706551,7.88944108 C10.2659351,8.24380955 10.211886,8.52055445 10.211886,8.71967579 C10.211886,8.90529737 10.2771953,9.0447948 10.4055618,9.13816808 C10.5868513,9.27316559 10.8694827,9.33953937 11.2545822,9.33953937 L11.4201074,9.33953937 L11.3593022,9.60165954 L7.33602647,9.60165954 L7.40358777,9.33953937 L7.59838954,9.33953937 C7.95421241,9.33953937 8.22445764,9.29116526 8.41137725,9.1910421 C8.55663405,9.11566849 8.68725258,8.97167114 8.80435884,8.76354998 C8.9214651,8.55317885 9.08136019,8.09081237 9.28404411,7.37307559 L10.8694827,1.84155246 L5.29680107,9.60165954 L5.01642165,9.60165954 L4.11560424,1.84155246 L2.41981547,7.73981883 C2.27343264,8.24605951 2.19911521,8.58580325 2.19911521,8.75567512 C2.19911521,8.92892193 2.26217243,9.06391945 2.38828686,9.15504277 C2.5144013,9.24841605 2.8195532,9.31028991 3.31162471,9.33953937 L3.23280318,9.60165954 L0.0833203255,9.60165954 L0.16326787,9.33953937 L0.353565547,9.33953937 C0.815234468,9.33953937 1.15191497,9.2236665 1.360229,8.98967081 C1.51111591,8.82092392 1.66988498,8.45418067 1.83315814,7.88944108 L3.90616419,0.782946954 C3.75415126,0.619824958 3.60664241,0.511826947 3.46363764,0.455577983 C3.31950686,0.401578978 3.06052185,0.356579806 2.68105252,0.321705449 L2.75199189,0.059585276 L5.12114167,0.059585276 Z" id="Fill-17" fill="#DCB677"></path>
                            </g>
                            <path d="M21.2833877,60.9064367 L22.1932132,59.6352101 C22.4285518,59.3010913 22.5479101,59.0907202 22.5479101,59.0018468 C22.5479101,58.9489728 22.5220116,58.9062236 22.4724666,58.8713492 C22.4195436,58.8375998 22.2754128,58.8151002 22.0400743,58.7993505 L22.076107,58.6688529 L23.575968,58.6688529 L23.5455654,58.7993505 C23.3991825,58.8196002 23.2989666,58.8409748 23.2482956,58.8612244 C23.162718,58.8949738 23.0793924,58.9523477 22.9960668,59.0277213 C22.8868426,59.1244696 22.7269476,59.319091 22.5163815,59.6104606 L21.3498229,61.2146811 L20.9940001,62.3947843 C20.9118005,62.6917789 20.8678856,62.8954001 20.8678856,63.007898 C20.8678856,63.0798967 20.8813979,63.1372706 20.9084224,63.17327 C20.9331949,63.2126443 20.9793618,63.2407687 21.0480491,63.2666433 C21.1381308,63.2913928 21.2743795,63.3060175 21.457921,63.3105175 L21.4230144,63.4387651 L19.4119395,63.4387651 L19.4547283,63.3105175 C19.6529082,63.3060175 19.7857787,63.2913928 19.854466,63.2632683 C19.9591861,63.2171442 20.0368816,63.1608952 20.0886786,63.0900215 C20.1675001,62.9831485 20.2496997,62.7885271 20.3341513,62.5106572 L20.7530314,61.1179328 L20.2429436,59.4743381 C20.1528618,59.1829685 20.0684102,59.0018468 19.9907147,58.9309731 C19.9141452,58.8612244 19.7801486,58.8162252 19.592103,58.7993505 L19.6258836,58.6688529 L21.3937378,58.6688529 L21.3498229,58.7993505 C21.1268706,58.8162252 21.0007562,58.8319749 20.9726057,58.8443497 C20.9208087,58.8589744 20.8768938,58.8893489 20.8431131,58.9399729 C20.8104585,58.9883471 20.7924422,59.047971 20.7924422,59.1143447 C20.7924422,59.211093 20.8284749,59.3764649 20.8994142,59.6104606 L21.2833877,60.9064367 Z" id="Fill-20" fill="#DCB677"></path>
                            <g id="Group-24" stroke-width="1" fill="none" transform="translate(23.846577, 62.732591)">
                                <mask id="mask-4" fill="white">
                                    <use xlink:href="#path-3"></use>
                                </mask>
                                <g id="Clip-23"></g>
                                <path d="M0.422795095,0.0777606924 C0.52188501,0.0777606924 0.606336642,0.113760029 0.676149991,0.182383766 C0.747089361,0.249882522 0.781996036,0.333130989 0.781996036,0.431004187 C0.781996036,0.532252322 0.747089361,0.616625768 0.676149991,0.686374484 C0.606336642,0.757248178 0.52188501,0.790997557 0.422795095,0.790997557 C0.324831202,0.790997557 0.24037957,0.757248178 0.171692243,0.686374484 C0.103004916,0.616625768 0.0692242631,0.532252322 0.0692242631,0.431004187 C0.0692242631,0.333130989 0.103004916,0.249882522 0.171692243,0.182383766 C0.24037957,0.113760029 0.324831202,0.0777606924 0.422795095,0.0777606924" id="Fill-22" fill="#DCB677" mask="url(#mask-4)"></path>
                            </g>
                            <path d="M26.4159074,63.5485631 L26.810015,61.7800956 L26.9316254,61.7800956 C26.9158611,61.9522175 26.9057269,62.0939649 26.9057269,62.2030879 C26.9057269,62.5270819 27.0093209,62.7880771 27.2142569,62.9905734 C27.4191928,63.1919446 27.688312,63.2909428 28.0216145,63.2909428 C28.3267664,63.2909428 28.5587268,63.1986945 28.7186219,63.009698 C28.879643,62.8218265 28.9584646,62.6035805 28.9584646,62.35721 C28.9584646,62.196338 28.9224319,62.0512157 28.8526185,61.9195931 C28.7422684,61.7260966 28.4461247,61.380728 27.9653134,60.892487 C27.7333529,60.6607413 27.584718,60.4863695 27.5182827,60.3682466 C27.4101846,60.1815001 27.3561356,59.9801288 27.3561356,59.7697577 C27.3561356,59.4378888 27.479998,59.153269 27.7322269,58.9170234 C27.9799517,58.6796527 28.2986158,58.5604049 28.6870933,58.5604049 C28.8210899,58.5604049 28.9460783,58.5716547 29.0620586,58.5986542 C29.134124,58.612154 29.2669945,58.6616531 29.4617963,58.7415266 C29.5946669,58.7944006 29.6701103,58.8247751 29.6847486,58.8304 C29.7185292,58.8382748 29.7545619,58.8393998 29.7917207,58.8393998 C29.86266,58.8393998 29.9212132,58.8236501 29.9707581,58.7876508 C30.0191771,58.7505264 30.0766042,58.6762778 30.1430395,58.5604049 L30.2781621,58.5604049 L29.911079,60.1455007 L29.7883426,60.1455007 C29.7996028,60.0037534 29.8063589,59.8901305 29.8063589,59.803507 C29.8063589,59.5200123 29.7117731,59.2860166 29.5248535,59.1071449 C29.3356819,58.9237732 29.0879571,58.8348999 28.7783011,58.8348999 C28.5350804,58.8348999 28.3380266,58.9057736 28.1848876,59.0497709 C28.0328747,59.1926433 27.9551792,59.3580153 27.9551792,59.5447618 C27.9551792,59.7101338 28.0058502,59.8653809 28.102688,60.0150032 C28.1995259,60.1623754 28.4247302,60.405371 28.774923,60.7417398 C29.1273678,61.0792336 29.3536982,61.3413537 29.4561662,61.5314752 C29.5586342,61.7215967 29.6081791,61.921843 29.6081791,62.1333391 C29.6081791,62.3752097 29.5439959,62.6092054 29.4178814,62.8375762 C29.292893,63.064822 29.1093515,63.2414437 28.8683828,63.3640665 C28.6274142,63.4866892 28.3650511,63.5485631 28.0824196,63.5485631 C27.9416669,63.5485631 27.8110484,63.5361883 27.688312,63.5114388 C27.5667017,63.4833143 27.3730259,63.4214404 27.1027807,63.3224422 C27.012699,63.2886929 26.9372555,63.2706932 26.8764503,63.2706932 C26.7356976,63.2706932 26.6275995,63.3640665 26.5532821,63.5485631 L26.4159074,63.5485631 Z" id="Fill-25" fill="#DCB677"></path>
                            <path d="M33.6141141,63.5485631 L34.0082217,61.7800956 L34.1298321,61.7800956 C34.1118157,61.9522175 34.1028076,62.0939649 34.1028076,62.2030879 C34.1028076,62.5270819 34.2075276,62.7880771 34.4124635,62.9905734 C34.6173995,63.1919446 34.8865187,63.2909428 35.2175691,63.2909428 C35.524973,63.2909428 35.7569335,63.1986945 35.9168286,63.009698 C36.0755977,62.8218265 36.1566713,62.6035805 36.1566713,62.35721 C36.1566713,62.196338 36.1206386,62.0512157 36.0508252,61.9195931 C35.9404751,61.7260966 35.6420793,61.380728 35.162394,60.892487 C34.9315596,60.6607413 34.7829247,60.4863695 34.7164894,60.3682466 C34.6083913,60.1815001 34.5543423,59.9801288 34.5543423,59.7697577 C34.5543423,59.4378888 34.6782047,59.153269 34.9281815,58.9170234 C35.1781583,58.6796527 35.4968225,58.5604049 35.883048,58.5604049 C36.0181706,58.5604049 36.144285,58.5716547 36.2602653,58.5986542 C36.3323306,58.612154 36.4652012,58.6616531 36.6577509,58.7415266 C36.7928735,58.7944006 36.866065,58.8247751 36.8807032,58.8304 C36.9156099,58.8382748 36.9527686,58.8393998 36.9910534,58.8393998 C37.0608667,58.8393998 37.1194199,58.8236501 37.1667128,58.7876508 C37.2151317,58.7505264 37.2748109,58.6762778 37.3389941,58.5604049 L37.4763688,58.5604049 L37.1092857,60.1455007 L36.9865493,60.1455007 C36.9978095,60.0037534 37.0045656,59.8901305 37.0045656,59.803507 C37.0045656,59.5200123 36.9099798,59.2860166 36.7208082,59.1071449 C36.5338885,58.9237732 36.2850377,58.8348999 35.9765078,58.8348999 C35.7332871,58.8348999 35.5362333,58.9057736 35.3830943,59.0497709 C35.2288293,59.1926433 35.1533859,59.3580153 35.1533859,59.5447618 C35.1533859,59.7101338 35.2018048,59.8653809 35.2997687,60.0150032 C35.3977326,60.1623754 35.6229369,60.405371 35.9731297,60.7417398 C36.3255745,61.0792336 36.5519049,61.3413537 36.6521208,61.5314752 C36.7568408,61.7215967 36.8063858,61.921843 36.8063858,62.1333391 C36.8063858,62.3752097 36.7422026,62.6092054 36.6172142,62.8375762 C36.4910997,63.064822 36.3053061,63.2414437 36.0665895,63.3640665 C35.8256209,63.4866892 35.5632578,63.5485631 35.2806263,63.5485631 C35.1398736,63.5485631 35.0092551,63.5361883 34.8865187,63.5114388 C34.7649084,63.4833143 34.5689806,63.4214404 34.3009874,63.3224422 C34.2109057,63.2886929 34.1354622,63.2706932 34.074657,63.2706932 C33.9339043,63.2706932 33.8269322,63.3640665 33.7492367,63.5485631 L33.6141141,63.5485631 Z" id="Fill-27" fill="#DCB677"></path>
                            <path d="M39.1243016,58.6685154 L42.7500917,58.6685154 L42.354858,59.9363671 L42.2253655,59.9363671 C42.2681543,59.7541205 42.2906748,59.5876235 42.2906748,59.4413762 C42.2906748,59.2703794 42.2377518,59.1387568 42.1319057,59.0532584 C42.0508321,58.9880096 41.8458962,58.9565101 41.5170978,58.9565101 L41.1398805,58.9565101 L40.1962743,62.2391997 C40.07579,62.6520671 40.0161108,62.9074374 40.0161108,63.0053106 C40.0161108,63.0941839 40.0532695,63.1673076 40.129839,63.2235566 C40.2019044,63.2809305 40.334775,63.31018 40.5284507,63.31018 L40.6905979,63.31018 L40.646683,63.4384276 L38.5691729,63.4384276 L38.6085836,63.31018 L38.6986654,63.31018 C38.8833329,63.31018 39.0252117,63.2809305 39.1243016,63.2213066 C39.1907369,63.1808073 39.2515421,63.1076837 39.3078431,63.0053106 C39.3630182,62.9018125 39.4384617,62.6801916 39.5364256,62.3438228 L40.5284507,58.9565101 L40.2390631,58.9565101 C39.9643138,58.9565101 39.7447396,58.9913845 39.5758363,59.0622582 C39.4080591,59.1320069 39.2729365,59.2321301 39.1693425,59.3693775 C39.0646224,59.5021251 38.9824229,59.6922466 38.9171136,59.9363671 L38.7887471,59.9363671 L39.1243016,58.6685154 Z" id="Fill-29" fill="#DCB677"></path>
                            <g id="Group-33" stroke-width="1" fill="none" transform="translate(43.715661, 58.541681)">
                                <mask id="mask-6" fill="white">
                                    <use xlink:href="#path-5"></use>
                                </mask>
                                <g id="Clip-32"></g>
                                <path d="M0.199750975,0.126834413 L2.21645594,0.126834413 L2.17704518,0.25733201 C1.9709832,0.262956906 1.82460037,0.283206533 1.73451863,0.316955912 C1.64894098,0.349580311 1.57349752,0.410329192 1.5104403,0.496952597 C1.44738308,0.584700981 1.38207382,0.746697997 1.31563854,0.978443729 L0.825819073,2.67041257 C0.739115397,2.96965706 0.688444418,3.16540345 0.672680114,3.25877673 C0.643403548,3.41064894 0.628765265,3.54902139 0.628765265,3.67951898 C0.628765265,3.96301376 0.735737332,4.20038439 0.946303401,4.39838075 C1.15799549,4.5963771 1.44062695,4.69312532 1.79307176,4.69312532 C2.02615827,4.69312532 2.23447229,4.6503761 2.41801384,4.55925278 C2.60155539,4.4715044 2.76032445,4.34775668 2.88869093,4.1891346 C3.01818344,4.03051252 3.13754174,3.81564148 3.24563983,3.54339649 C3.3526119,3.27340146 3.4460717,3.00115648 3.52939731,2.72778651 L3.95278149,1.26643843 C4.05750152,0.901945138 4.11155056,0.666824468 4.11155056,0.559951436 C4.11155056,0.480077907 4.07551787,0.414829109 4.00345247,0.356330186 C3.9325131,0.302331181 3.7872563,0.270831761 3.56880808,0.25733201 L3.60821884,0.126834413 L5.12497014,0.126834413 L5.08555938,0.25733201 C4.90877397,0.25733201 4.78040749,0.274206699 4.70158596,0.310206036 C4.62163842,0.346205373 4.55407711,0.406954254 4.49552398,0.493577659 C4.43697085,0.581326043 4.37278761,0.752322894 4.29847017,1.00319327 L3.7771221,2.77503564 C3.6115969,3.34877508 3.45507988,3.77289226 3.30757103,4.04513725 C3.16006218,4.32075717 2.94724406,4.54912797 2.66573863,4.73249959 C2.38198114,4.91587121 2.03629246,5.00699454 1.62304248,5.00699454 C1.14560925,5.00699454 0.757131745,4.87199702 0.462114045,4.60312697 C0.167096344,4.32975701 0.0218395375,4.02038771 0.0218395375,3.67164413 C0.0218395375,3.53327168 0.0342257769,3.38702437 0.0589982555,3.23065225 C0.0815186907,3.1249042 0.127685583,2.94490751 0.199750975,2.69178717 L0.672680114,1.07181701 C0.736863354,0.837821319 0.767265941,0.666824468 0.767265941,0.55432654 C0.767265941,0.468828115 0.735737332,0.400204378 0.668176027,0.352955249 C0.601740743,0.302331181 0.432837479,0.27308172 0.165970323,0.25733201 L0.199750975,0.126834413 Z" id="Fill-31" fill="#DCB677" mask="url(#mask-6)"></path>
                            </g>
                            <path d="M51.3813862,58.9343481 L50.3499503,62.5050323 C50.2711288,62.7739023 50.231718,62.9370243 50.231718,63.0000232 C50.231718,63.0360225 50.2429782,63.0731468 50.2688767,63.1080212 C50.2936492,63.1440205 50.3263038,63.1665201 50.3657146,63.1777699 C50.4276458,63.2013945 50.5267357,63.2126443 50.6641104,63.2126443 C51.0300674,63.2126443 51.3723781,63.17327 51.6887902,63.0978964 C52.0052023,63.0191478 52.2641873,62.9066499 52.4657452,62.7581526 C52.7528807,62.5410316 52.9792111,62.2395372 53.1514924,61.8592942 C53.3248998,61.4779262 53.4116035,61.0425592 53.4116035,60.5520683 C53.4116035,60.0008284 53.2787329,59.591336 53.0174959,59.3247159 C52.7551328,59.0558458 52.3722854,58.9219733 51.8667016,58.9219733 C51.7405872,58.9219733 51.5806921,58.9275982 51.3813862,58.9343481 L51.3813862,58.9343481 Z M50.1348802,58.7993505 L50.1754169,58.6688529 L51.6989244,58.6688529 C52.3441348,58.6688529 52.820442,58.7419766 53.1346021,58.8915988 C53.4431321,59.0389711 53.6919829,59.2740918 53.8789025,59.591336 C54.0658221,59.9074551 54.1592819,60.2494488 54.1592819,60.6116922 C54.1592819,60.9244364 54.1052329,61.2281808 53.9971348,61.5206754 C53.8890367,61.81542 53.7663003,62.0516656 53.6334298,62.2282874 C53.4994332,62.4049091 53.2922452,62.5984056 53.0118657,62.8132766 C52.7314863,63.0281477 52.4297125,63.1856448 52.1031662,63.2880179 C51.7754939,63.389266 51.369,63.4387651 50.8836846,63.4387651 L48.8624756,63.4387651 L48.9063904,63.3105175 C49.09331,63.3060175 49.2182984,63.2913928 49.2836077,63.2632683 C49.3748155,63.2205191 49.4423768,63.1665201 49.4885437,63.0990214 C49.557231,63.0000232 49.6360525,62.8031518 49.7171261,62.5050323 L50.5627684,59.6205854 C50.6280777,59.3944646 50.6596063,59.2144679 50.6596063,59.0850953 C50.6596063,58.993972 50.6280777,58.9230983 50.5661465,58.8724742 C50.5064673,58.8241001 50.387109,58.7993505 50.2091976,58.7993505 L50.1348802,58.7993505 Z" id="Fill-34" fill="#DCB677"></path>
                            <path d="M56.9619501,63.31018 L56.9236653,63.4384276 L54.9531273,63.4384276 L55.0071763,63.31018 C55.2019781,63.30568 55.3314706,63.2910553 55.3956538,63.2629308 C55.4992478,63.2201816 55.5758173,63.1639327 55.6231102,63.0941839 C55.7019317,62.985061 55.7818793,62.7881896 55.8640789,62.5046948 L56.6962089,59.6258728 C56.7648963,59.3873772 56.7986769,59.2085055 56.7986769,59.0847578 C56.7986769,59.0217589 56.7840386,58.9711349 56.7547621,58.9283857 C56.7221074,58.8856365 56.6770666,58.855262 56.6162614,58.8338874 C56.5554562,58.8102628 56.4349719,58.799013 56.2525564,58.799013 L56.2919671,58.6685154 L58.1386428,58.6685154 L58.099232,58.799013 C57.9505972,58.7978881 57.837995,58.8125128 57.7648036,58.8485121 C57.6612096,58.8980112 57.5823881,58.96551 57.526087,59.0510084 C57.4697859,59.1353819 57.3988465,59.3300033 57.3121428,59.6258728 L56.4845168,62.5046948 C56.4101994,62.7701899 56.3719147,62.9400618 56.3719147,63.0109355 C56.3719147,63.0705594 56.3854269,63.1189335 56.4158295,63.1605577 C56.4451061,63.201057 56.492399,63.2325564 56.5554562,63.256181 C56.6173874,63.2775556 56.7547621,63.2944303 56.9619501,63.31018" id="Fill-36" fill="#DCB677"></path>
                            <path d="M61.9103653,58.7872008 C61.6750267,58.7872008 61.4475703,58.8445747 61.224618,58.9626975 C61.0005397,59.0785704 60.7775874,59.2686919 60.5557611,59.5308121 C60.3350608,59.7951822 60.134629,60.1394259 59.9623476,60.565793 C59.7461515,61.0934083 59.6380534,61.5883992 59.6380534,62.0552656 C59.6380534,62.3860095 59.723631,62.6807541 59.8936603,62.9372493 C60.0625636,63.1948696 60.3271787,63.3219922 60.6830016,63.3219922 C60.8969457,63.3219922 61.1052597,63.2702432 61.3101957,63.1644951 C61.5151316,63.0598721 61.7313278,62.8810004 61.9554062,62.6233801 C62.2324075,62.303886 62.46662,61.8943935 62.6580437,61.3949027 C62.8494674,60.8954119 62.9429272,60.4330455 62.9429272,60.0010534 C62.9429272,59.6815593 62.8584756,59.3980645 62.6873203,59.152819 C62.515039,58.9086985 62.256054,58.7872008 61.9103653,58.7872008 M62.0285976,58.5610799 C62.3483878,58.5610799 62.6287672,58.6285787 62.8708618,58.7647012 C63.1152086,58.9053236 63.3055062,59.1089448 63.4451329,59.3755649 C63.5825076,59.64556 63.653447,59.9223049 63.653447,60.2102996 C63.653447,60.7221651 63.5036861,61.2587802 63.2086684,61.8190199 C62.9147767,62.3826345 62.5251732,62.8101267 62.0454879,63.1071212 C61.5646766,63.4018658 61.0714791,63.5481131 60.5613912,63.5481131 C60.1909301,63.5481131 59.8812741,63.4671146 59.6358013,63.3051176 C59.3892026,63.1408706 59.2079131,62.9259995 59.0863027,62.6593795 C58.9658184,62.3938843 58.9083913,62.1340141 58.9083913,61.8797688 C58.9083913,61.435402 59.0164894,60.9966601 59.2315595,60.5601681 C59.4477557,60.1270511 59.7033626,59.7636828 60.0017584,59.4689382 C60.2979021,59.1786936 60.6165663,58.9514477 60.9543728,58.7950756 C61.2921793,58.6364535 61.6525063,58.5610799 62.0285976,58.5610799" id="Fill-38" fill="#DCB677"></path>
                        </g>
                    </g>
                </g>
            </g>
        </g>
    </g>
</svg>