<?xml version="1.0" encoding="UTF-8"?>
<svg width="24px" height="24px" viewBox="0 0 24 24" version="1.1" xmlns="http://www.w3.org/2000/svg" xmlns:xlink="http://www.w3.org/1999/xlink">
    <!-- Generator: Sketch 45 (43475) - http://www.bohemiancoding.com/sketch -->
    <title>Instagram Copy</title>
    <desc>Created with Sketch.</desc>
    <defs></defs>
    <g id="Page-1" stroke="none" stroke-width="1" fill="none" fill-rule="evenodd">
        <g id="woody_index" transform="translate(-1254.000000, -4278.000000)" fill="#DCB677">
            <g id="Group-7" transform="translate(1200.000000, 4278.000000)">
                <path d="M75.1472056,0 L56.8527944,0 C55.2771459,0 54,1.27387284 54,2.84624826 L54,21.1537517 C54,22.7254725 55.2771459,24 56.8527944,24 L75.1472056,24 C76.7228541,24 78,22.7254725 78,21.1537517 L78,2.84624826 C78,1.27387284 76.7228541,0 75.1472056,0 L75.1472056,0 Z M71.2503068,3.74961132 C71.2503068,3.33589723 71.5861222,3.00008183 71.9998363,3.00008183 L74.2497341,3.00008183 C74.6641028,3.00008183 74.9999182,3.33589723 74.9999182,3.74961132 L74.9999182,5.99950904 C74.9999182,6.41387775 74.6641028,6.74969315 74.2497341,6.74969315 L71.9998363,6.74969315 C71.5861222,6.74969315 71.2503068,6.41387775 71.2503068,5.99950904 L71.2503068,3.74961132 L71.2503068,3.74961132 Z M66.027821,7.42328778 C68.5768759,7.42328778 70.6434825,9.48531217 70.6434825,12.027821 C70.6434825,14.5709844 68.5768759,16.6323541 66.027821,16.6323541 C63.4794207,16.6323541 61.412814,14.5709844 61.412814,12.027821 C61.412814,9.48531217 63.4794207,7.42328778 66.027821,7.42328778 L66.027821,7.42328778 Z M75.7501023,20.9999182 C75.7501023,21.4136323 75.4142869,21.7501023 74.9999182,21.7501023 L57.0000818,21.7501023 C56.5857131,21.7501023 56.2498977,21.4136323 56.2498977,20.9999182 L56.2498977,9.74977498 L59.2499795,9.74977498 C58.8591768,10.3120858 58.7269454,11.3614271 58.7269454,12.027821 C58.7269454,16.0438589 62.0026184,19.3116766 66.027821,19.3116766 C70.0536781,19.3116766 73.3293511,16.0438589 73.3293511,12.027821 C73.3293511,11.3614271 73.2344325,10.3277964 72.7500205,9.74977498 L75.7501023,9.74977498 L75.7501023,20.9999182 L75.7501023,20.9999182 Z" id="Instagram-Copy"></path>
            </g>
        </g>
    </g>
</svg>